<svg width="40" height="40" viewBox="0 0 40 40" fill="none" xmlns="http://www.w3.org/2000/svg">
<path d="M8.92039 33.5385H6.45898V36H8.92039V33.5385Z" fill="#292929"/>
<path d="M6.4614 33.5385H4V36H6.4614V33.5385Z" fill="#292929"/>
<path d="M21.227 31.077H18.7656V33.5386H21.227V31.077Z" fill="#292929"/>
<path d="M18.7661 31.077H16.3047V33.5386H18.7661V31.077Z" fill="#292929"/>
<path d="M16.3081 31.077H13.8467V33.5386H16.3081V31.077Z" fill="#292929"/>
<path d="M11.3833 31.077H8.92188V33.5386H11.3833V31.077Z" fill="#292929"/>
<path d="M8.92039 31.077H6.45898V33.5386H8.92039V31.077Z" fill="#292929"/>
<path d="M6.4614 31.077H4V33.5386H6.4614V31.077Z" fill="#292929"/>
<path d="M18.7661 28.6152H16.3047V31.0768H18.7661V28.6152Z" fill="#292929"/>
<path d="M16.3081 28.6152H13.8467V31.0768H16.3081V28.6152Z" fill="#292929"/>
<path d="M13.8491 28.6152H11.3877V31.0768H13.8491V28.6152Z" fill="#292929"/>
<path d="M11.3833 28.6152H8.92188V31.0768H11.3833V28.6152Z" fill="#292929"/>
<path d="M8.92039 28.6152H6.45898V31.0768H8.92039V28.6152Z" fill="#292929"/>
<path d="M18.7661 26.1545H16.3047V28.6161H18.7661V26.1545Z" fill="#292929"/>
<path d="M16.3081 26.1545H13.8467V28.6161H16.3081V26.1545Z" fill="#292929"/>
<path d="M13.8491 26.1545H11.3877V28.6161H13.8491V26.1545Z" fill="#292929"/>
<path d="M11.3833 26.1545H8.92188V28.6161H11.3833V26.1545Z" fill="#292929"/>
<path d="M21.227 23.6927H18.7656V26.1543H21.227V23.6927Z" fill="#292929"/>
<path d="M16.3081 23.6927H13.8467V26.1543H16.3081V23.6927Z" fill="#292929"/>
<path d="M13.8491 23.6927H11.3877V26.1543H13.8491V23.6927Z" fill="#292929"/>
<path d="M11.3833 23.6927H8.92188V26.1543H11.3833V23.6927Z" fill="#292929"/>
<path d="M8.92039 23.6927H6.45898V26.1543H8.92039V23.6927Z" fill="#292929"/>
<path d="M23.6938 21.231H21.2324V23.6925H23.6938V21.231Z" fill="#292929"/>
<path d="M13.8491 21.231H11.3877V23.6925H13.8491V21.231Z" fill="#292929"/>
<path d="M11.3833 21.231H8.92188V23.6925H11.3833V21.231Z" fill="#292929"/>
<path d="M8.92039 21.231H6.45898V23.6925H8.92039V21.231Z" fill="#292929"/>
<path d="M26.1548 18.7692H23.6934V21.2307H26.1548V18.7692Z" fill="#292929"/>
<path d="M16.3081 18.7692H13.8467V21.2307H16.3081V18.7692Z" fill="#292929"/>
<path d="M8.92039 18.7692H6.45898V21.2307H8.92039V18.7692Z" fill="#292929"/>
<path d="M28.6137 16.3076H26.1523V18.7692H28.6137V16.3076Z" fill="#292929"/>
<path d="M18.7661 16.3076H16.3047V18.7692H18.7661V16.3076Z" fill="#292929"/>
<path d="M31.0727 13.8463H28.6113V16.3079H31.0727V13.8463Z" fill="#292929"/>
<path d="M21.227 13.8463H18.7656V16.3079H21.227V13.8463Z" fill="#292929"/>
<path d="M33.5385 11.385H31.0771V13.8466H33.5385V11.385Z" fill="#292929"/>
<path d="M23.6938 11.385H21.2324V13.8466H23.6938V11.385Z" fill="#292929"/>
<path d="M35.9995 8.92358H33.5381V11.3851H35.9995V8.92358Z" fill="#292929"/>
<path d="M26.1548 8.92358H23.6934V11.3851H26.1548V8.92358Z" fill="#292929"/>
<path d="M35.9995 6.46191H33.5381V8.92346H35.9995V6.46191Z" fill="#292929"/>
<path d="M28.6137 6.46191H26.1523V8.92346H28.6137V6.46191Z" fill="#292929"/>
<path d="M35.9995 4H33.5381V6.46154H35.9995V4Z" fill="#292929"/>
<path d="M33.5385 4H31.0771V6.46154H33.5385V4Z" fill="#292929"/>
<path d="M31.0727 4H28.6113V6.46154H31.0727V4Z" fill="#292929"/>
</svg>
